<svg width="214" height="120" viewBox="0 0 214 120" fill="none" xmlns="http://www.w3.org/2000/svg">
<path d="M169.5 65L160.5 93.5C160.5 93.5 155.272 101.095 150 105C144.728 108.905 133.5 113.5 133.5 113.5C133.5 113.5 120.994 117.231 112.5 118.5C104.006 119.769 90 120 90 120C90 120 79.4437 119.781 73 119C66.5563 118.219 57 116 57 116C57 116 48.2721 114.05 43 112C37.7279 109.95 30 105.5 30 105.5C29.9982 105.499 25.8426 102.245 23.5 100C21.1569 97.7545 18 94 18 94C17.9992 93.9989 16.8533 92.2983 16.5 91.5C16.4107 91.2982 16.3282 91.0894 16.249 90.876C15.1394 89.0089 14.5 86.8295 14.5 84.5C14.5 77.5964 20.0964 72 27 72C33.4361 72 38.7346 76.8644 39.4229 83.1172C39.447 83.2391 39.4736 83.3664 39.5 83.5C39.5 85 39.6593 87.2261 40.5 89C41.5 91.5 44.5 94.3 46 95.5C53.5 101.5 56.0629 101.84 64.5 105C73.43 108.345 79.0701 109.273 89 110C94.8422 110.427 99.1578 110.928 105 110.5C109.517 110.169 116.5 109 116.5 109C116.5 109 106.134 109.829 99.5 109.5C93.2107 109.188 83.5 107.5 83.5 107.5C83.5 107.5 75.6005 105.464 71.5 104C67.3995 102.536 66.4205 102.259 63 100.5C59.5751 98.7389 56.8313 97.3431 54 95C51.1687 92.6569 50.3275 92.0815 49 89.5C48.0677 87.6871 47.5 85.8668 47.5 84.5C47.5 83.1332 48 82.5 48 82.5H72C72 82.5 89.9042 88.996 102 89.5C114 90 119 89 128 84.5C132.856 82.0721 136.999 79.1242 139 76C141.001 72.8758 144.25 65 144.25 65H119L125 46.5H175L169.5 65ZM75.5 57H65C64.6807 57 64.3756 57.1312 64.1553 57.3623L61.8291 59.8018C61.6861 59.9518 61.7927 60.2002 62 60.2002H74.5L73.5 64H62L61.9922 64.0059C61.8286 64.002 61.6645 64 61.5 64C54.1152 64 47.6429 67.9051 44.0342 73.7627C40.5137 67.9062 34.2038 64 27 64C15.9543 64 7 73.1782 7 84.5C7 85.0045 7.01876 85.5046 7.05371 86H4C2.03149 86 0.402829 84.4728 0.301758 82.5068C0.162238 79.793 0 75.9991 0 73C0 70.3262 0.514435 66.7636 1.02148 63.9014C1.58468 60.7224 3.41721 57.9371 6 56L14.3818 50.9707C17.0603 49.3636 19.1586 46.9569 20.5439 44.1572C22.7064 39.787 26.3102 33.1203 30 29C35.8579 22.4587 39.3752 19.5442 46.5 15C54.7577 9.7332 60.1274 7.8313 69.5 5C78.8726 2.1687 94.5 0 94.5 0L75.5 57ZM211.863 4H159.363L158 9H196.5L195.126 13.5H140.126L138.038 19.5H179.538L178 24.5H111.234L92.2373 82C92.2044 82 89.4698 81.994 84.5 81C82.1009 80.5202 77 78 77 78L102.5 0H213.5L211.863 4ZM56.8457 73C61.1194 71.6786 70.7697 71.9975 70.8457 72L68.8457 78.5H49.8457C49.8457 78.5 52.5513 74.3281 56.8457 73ZM37.5 30.5C35.6614 30.5 33.9804 31.5391 33.1582 33.1836L26.9473 45.6055C26.7418 46.0164 27.0406 46.5 27.5 46.5H36.7627C37.8877 46.5 38.9806 46.1203 39.8633 45.4229L41.6367 44.0215C42.5194 43.324 43.6123 42.9443 44.7373 42.9443H50.7227C51.7042 42.9441 52.4998 42.1485 52.5 41.167V31.8613C52.5 31.1096 51.8904 30.5 51.1387 30.5H37.5Z" fill="#FF6B35"/>
</svg>
